<svg xmlns="http://www.w3.org/2000/svg" xmlns:xlink="http://www.w3.org/1999/xlink" width="300" zoomAndPan="magnify" viewBox="0 0 224.87999 487.499991" height="650" preserveAspectRatio="xMidYMid meet" version="1.0"><defs><clipPath id="590fe64c09"><path d="M 0.0546875 0 L 224.703125 0 L 224.703125 487 L 0.0546875 487 Z M 0.0546875 0 " clip-rule="nonzero"/></clipPath><clipPath id="62457c2872"><path d="M 0.0546875 0 L 224.703125 0 L 224.703125 461 L 0.0546875 461 Z M 0.0546875 0 " clip-rule="nonzero"/></clipPath><clipPath id="f6e6db580d"><path d="M 152.292969 -55.242188 L 328.363281 67.082031 L 44.535156 475.621094 L -131.535156 353.296875 Z M 152.292969 -55.242188 " clip-rule="nonzero"/></clipPath><clipPath id="c7f767ba8c"><path d="M 184.289062 -33.011719 L 296.367188 44.851562 C 314.039062 57.128906 318.414062 81.40625 306.136719 99.078125 L 66.910156 443.410156 C 54.636719 461.082031 30.355469 465.453125 12.6875 453.179688 L -99.390625 375.3125 C -117.0625 363.035156 -121.4375 338.757812 -109.160156 321.085938 L 130.066406 -23.246094 C 142.339844 -40.917969 166.617188 -45.289062 184.289062 -33.011719 Z M 184.289062 -33.011719 " clip-rule="nonzero"/></clipPath><clipPath id="59653e6854"><path d="M 0.0546875 0 L 224.703125 0 L 224.703125 461 L 0.0546875 461 Z M 0.0546875 0 " clip-rule="nonzero"/></clipPath><clipPath id="1b0c12c9ba"><path d="M 152.292969 -55.242188 L 328.273438 67.019531 L 44.421875 475.582031 L -131.554688 353.324219 Z M 152.292969 -55.242188 " clip-rule="nonzero"/></clipPath><clipPath id="6d2029a45a"><path d="M 152.289062 -55.234375 L 328.800781 67.394531 L 45.066406 475.792969 L -131.445312 353.164062 Z M 152.289062 -55.234375 " clip-rule="nonzero"/></clipPath><clipPath id="162c2e3516"><path d="M 184.285156 -33.007812 L 296.359375 44.855469 C 314.03125 57.132812 318.402344 81.410156 306.125 99.078125 L 66.910156 443.402344 C 54.632812 461.070312 30.355469 465.445312 12.6875 453.167969 L -99.386719 375.304688 C -117.058594 363.027344 -121.429688 338.75 -109.15625 321.082031 L 130.0625 -23.242188 C 142.335938 -40.910156 166.613281 -45.285156 184.285156 -33.007812 Z M 184.285156 -33.007812 " clip-rule="nonzero"/></clipPath><clipPath id="f3684d0605"><path d="M 0.0546875 0 L 224.703125 0 L 224.703125 431 L 0.0546875 431 Z M 0.0546875 0 " clip-rule="nonzero"/></clipPath><clipPath id="02b4b6f41d"><path d="M 58.886719 -107.160156 L 306.460938 64.839844 L 42.164062 445.265625 L -205.410156 273.261719 Z M 58.886719 -107.160156 " clip-rule="nonzero"/></clipPath><clipPath id="dd3a1daf76"><path d="M 88.417969 -86.640625 L 276.925781 44.324219 C 284.761719 49.765625 290.109375 58.09375 291.800781 67.480469 C 293.492188 76.871094 291.382812 86.542969 285.941406 94.375 L 63.058594 415.1875 C 57.617188 423.019531 49.289062 428.371094 39.902344 430.0625 C 30.511719 431.753906 20.839844 429.644531 13.007812 424.203125 L -175.5 293.238281 C -183.332031 287.796875 -188.683594 279.464844 -190.375 270.078125 C -192.066406 260.691406 -189.957031 251.019531 -184.515625 243.183594 L 38.367188 -77.625 C 43.808594 -85.460938 52.140625 -90.808594 61.527344 -92.5 C 70.914062 -94.191406 80.585938 -92.082031 88.417969 -86.640625 Z M 88.417969 -86.640625 " clip-rule="nonzero"/></clipPath><clipPath id="df72c1fe25"><path d="M 0.0546875 0 L 224.703125 0 L 224.703125 431 L 0.0546875 431 Z M 0.0546875 0 " clip-rule="nonzero"/></clipPath><clipPath id="4ee4a0a9ef"><path d="M 58.886719 -107.160156 L 306.238281 64.6875 L 42.480469 444.332031 L -204.871094 272.484375 Z M 58.886719 -107.160156 " clip-rule="nonzero"/></clipPath><clipPath id="c99a5aa2b6"><path d="M 58.621094 -108.625 L 307.820312 64.503906 L 42.714844 446.085938 L -206.480469 272.957031 Z M 58.621094 -108.625 " clip-rule="nonzero"/></clipPath><clipPath id="5810e13485"><path d="M 88.421875 -86.640625 L 276.925781 44.320312 C 284.757812 49.761719 290.109375 58.09375 291.800781 67.480469 C 293.488281 76.867188 291.382812 86.542969 285.941406 94.375 L 63.0625 415.183594 C 57.617188 423.015625 49.289062 428.367188 39.902344 430.058594 C 30.515625 431.746094 20.839844 429.640625 13.007812 424.199219 L -175.496094 293.234375 C -183.332031 287.792969 -188.679688 279.460938 -190.371094 270.074219 C -192.0625 260.6875 -189.953125 251.015625 -184.511719 243.179688 L 38.367188 -77.625 C 43.808594 -85.460938 52.140625 -90.808594 61.527344 -92.5 C 70.914062 -94.191406 80.585938 -92.082031 88.421875 -86.640625 Z M 88.421875 -86.640625 " clip-rule="nonzero"/></clipPath><clipPath id="92b174918b"><path d="M 0.0546875 0.0117188 L 224.703125 0.0117188 L 224.703125 486.988281 L 0.0546875 486.988281 Z M 0.0546875 0.0117188 " clip-rule="nonzero"/></clipPath><clipPath id="3fabe19c1f"><path d="M 11.6875 12.195312 L 213.230469 12.195312 L 213.230469 474.46875 L 11.6875 474.46875 Z M 11.6875 12.195312 " clip-rule="nonzero"/></clipPath><clipPath id="a50017e1f7"><path d="M 7.640625 7.605469 L 11.742188 7.605469 L 11.742188 479.449219 L 7.640625 479.449219 Z M 7.640625 7.605469 " clip-rule="nonzero"/></clipPath><clipPath id="8f82ae6f3a"><path d="M 213.425781 7.605469 L 217.527344 7.605469 L 217.527344 452.667969 L 213.425781 452.667969 Z M 213.425781 7.605469 " clip-rule="nonzero"/></clipPath><clipPath id="130c472456"><path d="M 11.742188 7.605469 L 213.425781 7.605469 L 213.425781 12.195312 L 11.742188 12.195312 Z M 11.742188 7.605469 " clip-rule="nonzero"/></clipPath></defs><g clip-path="url(#590fe64c09)"><path fill="#ffffff" d="M 0.0546875 0 L 224.824219 0 L 224.824219 487 L 0.0546875 487 Z M 0.0546875 0 " fill-opacity="1" fill-rule="nonzero"/><path fill="#ffffff" d="M 0.0546875 0 L 224.824219 0 L 224.824219 487 L 0.0546875 487 Z M 0.0546875 0 " fill-opacity="1" fill-rule="nonzero"/></g><g clip-path="url(#62457c2872)"><g clip-path="url(#f6e6db580d)"><g clip-path="url(#c7f767ba8c)"><path fill="#b7b7b7" d="M 152.292969 -55.242188 L 328.363281 67.082031 L 44.535156 475.621094 L -131.535156 353.296875 Z M 152.292969 -55.242188 " fill-opacity="1" fill-rule="nonzero"/></g></g></g><g clip-path="url(#59653e6854)"><g clip-path="url(#1b0c12c9ba)"><g clip-path="url(#6d2029a45a)"><g clip-path="url(#162c2e3516)"><path stroke-linecap="butt" transform="matrix(0.615309, 0.427484, -0.427484, 0.615309, 152.28939, -55.235951)" fill="none" stroke-linejoin="miter" d="M 51.998875 -0.000863899 L 234.141878 -0.000664388 C 262.862095 -0.000793956 286.141316 23.281569 286.138471 51.997504 L 286.141738 611.590475 C 286.138893 640.30641 262.859505 663.589913 234.14357 663.587067 L 52.000567 663.586868 C 23.28035 663.586997 0.00112934 640.304634 -0.000307249 611.591674 L 0.000707003 51.995728 C -0.000729587 23.282768 23.278659 -0.000734332 51.998875 -0.000863899 Z M 51.998875 -0.000863899 " stroke="#000000" stroke-width="6" stroke-opacity="1" stroke-miterlimit="4"/></g></g></g></g><g clip-path="url(#f3684d0605)"><g clip-path="url(#02b4b6f41d)"><g clip-path="url(#dd3a1daf76)"><path fill="#f4f4f4" d="M 58.886719 -107.160156 L 306.460938 64.839844 L 42.765625 444.402344 L -204.8125 272.398438 Z M 58.886719 -107.160156 " fill-opacity="1" fill-rule="nonzero"/></g></g></g><g clip-path="url(#df72c1fe25)"><g clip-path="url(#4ee4a0a9ef)"><g clip-path="url(#c99a5aa2b6)"><g clip-path="url(#5810e13485)"><path stroke-linecap="butt" transform="matrix(0.615309, 0.427484, -0.427484, 0.615309, 58.885807, -107.160526)" fill="none" stroke-linejoin="miter" d="M 48.001861 -0.000175681 L 354.357139 -0.00167864 C 367.085849 -0.00153071 379.296947 5.056067 388.29922 14.057059 C 397.297212 23.061025 402.357752 35.270304 402.357604 47.999014 L 402.359289 569.375585 C 402.354859 582.107271 397.301543 594.315394 388.300551 603.317667 C 379.296585 612.315659 367.087306 617.376199 354.358595 617.376051 L 48.000343 617.373272 C 35.267351 617.376099 23.060535 612.315527 14.058261 603.314535 C 5.055988 594.313543 0.00270403 582.105572 -0.00012277 569.372579 L 0.00116783 48.00029 C -0.00165897 35.267298 5.058913 23.060482 14.059905 14.058208 C 23.060897 5.055935 35.268869 0.00265112 48.001861 -0.000175681 Z M 48.001861 -0.000175681 " stroke="#000000" stroke-width="6" stroke-opacity="1" stroke-miterlimit="4"/></g></g></g></g><g clip-path="url(#92b174918b)"><path stroke-linecap="butt" transform="matrix(0.749232, 0, 0, 0.749232, 0.0552636, 0.0122841)" fill="none" stroke-linejoin="miter" d="M -0.000768868 -0.000754591 L 300.296514 -0.000754591 L 300.296514 649.967319 L -0.000768868 649.967319 Z M -0.000768868 -0.000754591 " stroke="#000000" stroke-width="20" stroke-opacity="1" stroke-miterlimit="4"/></g><g clip-path="url(#3fabe19c1f)"><path stroke-linecap="butt" transform="matrix(0.749232, 0, 0, 0.749232, 11.688635, 12.196481)" fill="none" stroke-linejoin="miter" d="M -0.00151482 -0.00155971 L 269.248313 -0.00155971 L 269.248313 617.433139 L -0.00151482 617.433139 Z M -0.00151482 -0.00155971 " stroke="#000000" stroke-width="6" stroke-opacity="1" stroke-miterlimit="4"/></g><g clip-path="url(#a50017e1f7)"><path fill="#ffffff" d="M 7.640625 7.605469 L 11.742188 7.605469 L 11.742188 479.453125 L 7.640625 479.453125 Z M 7.640625 7.605469 " fill-opacity="1" fill-rule="nonzero"/></g><g clip-path="url(#8f82ae6f3a)"><path fill="#ffffff" d="M 213.425781 7.605469 L 217.527344 7.605469 L 217.527344 452.671875 L 213.425781 452.671875 Z M 213.425781 7.605469 " fill-opacity="1" fill-rule="nonzero"/></g><g clip-path="url(#130c472456)"><path fill="#ffffff" d="M 11.742188 7.605469 L 213.421875 7.605469 L 213.421875 12.195312 L 11.742188 12.195312 Z M 11.742188 7.605469 " fill-opacity="1" fill-rule="nonzero"/></g></svg>