<svg xmlns="http://www.w3.org/2000/svg" xmlns:xlink="http://www.w3.org/1999/xlink" width="315" zoomAndPan="magnify" viewBox="0 0 236.25 487.499988" height="650" preserveAspectRatio="xMidYMid meet" version="1.0"><defs><clipPath id="c281b4d260"><path d="M 0 0.523438 L 235.503906 0.523438 L 235.503906 486.480469 L 0 486.480469 Z M 0 0.523438 " clip-rule="nonzero"/></clipPath><clipPath id="4ff3c0f2c6"><path d="M 0 0.523438 L 235.503906 0.523438 L 235.503906 471 L 0 471 Z M 0 0.523438 " clip-rule="nonzero"/></clipPath><clipPath id="29f8be40d5"><path d="M 159.507812 -69.507812 L 343.984375 58.65625 L 46.601562 486.703125 L -137.878906 358.539062 Z M 159.507812 -69.507812 " clip-rule="nonzero"/></clipPath><clipPath id="0b31f8d320"><path d="M 193.277344 -46.046875 L 310.214844 35.195312 C 328.867188 48.152344 333.480469 73.777344 320.523438 92.425781 L 70.21875 452.710938 C 57.261719 471.359375 31.636719 475.976562 12.988281 463.019531 L -103.953125 381.777344 C -122.601562 368.816406 -127.21875 343.195312 -114.261719 324.542969 L 136.046875 -35.738281 C 149.003906 -54.390625 174.625 -59.003906 193.277344 -46.046875 Z M 193.277344 -46.046875 " clip-rule="nonzero"/></clipPath><clipPath id="b881bb5ec5"><path d="M 0 0.523438 L 235.503906 0.523438 L 235.503906 471 L 0 471 Z M 0 0.523438 " clip-rule="nonzero"/></clipPath><clipPath id="cffd095aa8"><path d="M 159.507812 -69.507812 L 343.703125 58.460938 L 46.386719 486.414062 L -137.8125 358.441406 Z M 159.507812 -69.507812 " clip-rule="nonzero"/></clipPath><clipPath id="f6c549a57b"><path d="M 159.507812 -69.507812 L 344.449219 58.980469 L 47.164062 486.886719 L -137.78125 358.398438 Z M 159.507812 -69.507812 " clip-rule="nonzero"/></clipPath><clipPath id="32ce79034f"><path d="M 193.277344 -46.046875 L 310.214844 35.195312 C 328.863281 48.152344 333.476562 73.773438 320.519531 92.425781 L 70.21875 452.703125 C 57.261719 471.351562 31.640625 475.96875 12.988281 463.011719 L -103.949219 381.769531 C -122.597656 368.8125 -127.214844 343.1875 -114.257812 324.539062 L 136.046875 -35.738281 C 149.003906 -54.390625 174.625 -59.003906 193.277344 -46.046875 Z M 193.277344 -46.046875 " clip-rule="nonzero"/></clipPath><clipPath id="1d229be26f"><path d="M 0 0.523438 L 235.503906 0.523438 L 235.503906 440 L 0 440 Z M 0 0.523438 " clip-rule="nonzero"/></clipPath><clipPath id="4faeefb003"><path d="M 61.640625 -123.902344 L 321.039062 56.3125 L 44.121094 454.902344 L -215.277344 274.683594 Z M 61.640625 -123.902344 " clip-rule="nonzero"/></clipPath><clipPath id="7e343bcc7a"><path d="M 92.339844 -102.574219 L 290.339844 34.984375 C 298.480469 40.640625 304.042969 49.300781 305.800781 59.058594 C 307.558594 68.816406 305.367188 78.871094 299.710938 87.011719 L 65.84375 423.632812 C 60.1875 431.777344 51.527344 437.335938 41.769531 439.09375 C 32.011719 440.851562 21.957031 438.660156 13.816406 433.003906 L -184.183594 295.445312 C -192.324219 289.789062 -197.886719 281.128906 -199.644531 271.371094 C -201.402344 261.617188 -199.210938 251.558594 -193.554688 243.417969 L 40.3125 -93.203125 C 45.96875 -101.34375 54.628906 -106.90625 64.382812 -108.664062 C 74.140625 -110.421875 84.195312 -108.230469 92.339844 -102.574219 Z M 92.339844 -102.574219 " clip-rule="nonzero"/></clipPath><clipPath id="9938b74580"><path d="M 0 0.523438 L 235.503906 0.523438 L 235.503906 440 L 0 440 Z M 0 0.523438 " clip-rule="nonzero"/></clipPath><clipPath id="97e96f3a04"><path d="M 61.640625 -123.902344 L 320.742188 56.109375 L 44.328125 453.976562 L -214.777344 273.964844 Z M 61.640625 -123.902344 " clip-rule="nonzero"/></clipPath><clipPath id="549a715137"><path d="M 61.636719 -123.898438 L 321.824219 56.867188 L 44.695312 455.757812 L -215.492188 274.996094 Z M 61.636719 -123.898438 " clip-rule="nonzero"/></clipPath><clipPath id="09641d0ff4"><path d="M 92.335938 -102.570312 L 290.328125 34.984375 C 298.472656 40.640625 304.03125 49.300781 305.789062 59.058594 C 307.546875 68.816406 305.355469 78.871094 299.699219 87.011719 L 65.839844 423.625 C 60.183594 431.765625 51.523438 437.328125 41.769531 439.085938 C 32.011719 440.84375 21.957031 438.652344 13.8125 432.996094 L -184.179688 295.441406 C -192.324219 289.785156 -197.882812 281.125 -199.640625 271.367188 C -201.398438 261.609375 -199.207031 251.554688 -193.550781 243.414062 L 40.308594 -93.199219 C 45.964844 -101.339844 54.625 -106.902344 64.382812 -108.660156 C 74.136719 -110.417969 84.195312 -108.226562 92.335938 -102.570312 Z M 92.335938 -102.570312 " clip-rule="nonzero"/></clipPath><clipPath id="148c68b985"><path d="M 0 0.535156 L 235.503906 0.535156 L 235.503906 486.46875 L 0 486.46875 Z M 0 0.535156 " clip-rule="nonzero"/></clipPath><clipPath id="3a145fc82e"><path d="M 12.1875 12.710938 L 223.558594 12.710938 L 223.558594 473.996094 L 12.1875 473.996094 Z M 12.1875 12.710938 " clip-rule="nonzero"/></clipPath><clipPath id="d34d24b689"><path d="M 7.476562 12.984375 L 12.242188 12.984375 L 12.242188 462.929688 L 7.476562 462.929688 Z M 7.476562 12.984375 " clip-rule="nonzero"/></clipPath><clipPath id="afddcee794"><path d="M 223.558594 12.710938 L 228.324219 12.710938 L 228.324219 462.65625 L 223.558594 462.65625 Z M 223.558594 12.710938 " clip-rule="nonzero"/></clipPath></defs><g clip-path="url(#c281b4d260)"><path fill="#ffffff" d="M 0 0.523438 L 235.503906 0.523438 L 235.503906 486.480469 L 0 486.480469 Z M 0 0.523438 " fill-opacity="1" fill-rule="nonzero"/><path fill="#ffffff" d="M 0 0.523438 L 235.503906 0.523438 L 235.503906 486.480469 L 0 486.480469 Z M 0 0.523438 " fill-opacity="1" fill-rule="nonzero"/></g><g clip-path="url(#4ff3c0f2c6)"><g clip-path="url(#29f8be40d5)"><g clip-path="url(#0b31f8d320)"><path fill="#b7b7b7" d="M 159.507812 -69.507812 L 343.984375 58.65625 L 46.601562 486.703125 L -137.878906 358.539062 Z M 159.507812 -69.507812 " fill-opacity="1" fill-rule="nonzero"/></g></g></g><g clip-path="url(#b881bb5ec5)"><g clip-path="url(#cffd095aa8)"><g clip-path="url(#f6c549a57b)"><g clip-path="url(#32ce79034f)"><path stroke-linecap="butt" transform="matrix(0.613991, 0.426568, -0.426568, 0.613991, 159.506491, -69.508574)" fill="none" stroke-linejoin="miter" d="M 55.001812 -0.000509758 L 245.45671 -0.000142154 C 275.830031 0.00107177 300.450768 24.624669 300.452535 55.00228 L 300.453018 641.781148 C 300.451804 672.154468 275.831187 696.779496 245.453576 696.781264 L 54.998678 696.780896 C 24.625357 696.779682 -0.0026523 672.154775 -0.00143837 641.781455 L 0.0023703 54.999606 C 0.000603103 24.621995 24.624201 0.00125744 55.001812 -0.000509758 Z M 55.001812 -0.000509758 " stroke="#000000" stroke-width="6" stroke-opacity="1" stroke-miterlimit="4"/></g></g></g></g><g clip-path="url(#1d229be26f)"><g clip-path="url(#4faeefb003)"><g clip-path="url(#7e343bcc7a)"><path fill="#f4f4f4" d="M 61.640625 -123.902344 L 321.039062 56.3125 L 44.75 453.996094 L -214.648438 273.78125 Z M 61.640625 -123.902344 " fill-opacity="1" fill-rule="nonzero"/></g></g></g><g clip-path="url(#9938b74580)"><g clip-path="url(#97e96f3a04)"><g clip-path="url(#549a715137)"><g clip-path="url(#09641d0ff4)"><path stroke-linecap="butt" transform="matrix(0.613991, 0.426568, -0.426568, 0.613991, 61.636414, -123.897922)" fill="none" stroke-linejoin="miter" d="M 49.999357 -0.000832913 L 372.467119 -0.000363855 C 385.730391 -0.00270328 398.445537 5.268191 407.823288 14.645466 C 417.201039 24.022741 422.46721 36.740036 422.466569 49.999017 L 422.468021 598.235912 C 422.467379 611.494894 417.199466 624.21433 407.826482 633.5891 C 398.449207 642.966851 385.731912 648.233023 372.46864 648.235362 L 50.000878 648.234893 C 36.737605 648.237232 24.02246 642.966338 14.644709 633.589063 C 5.266958 624.211788 0.000786163 611.494493 0.00142785 598.235512 L -0.0000243752 49.998617 C 0.000617311 36.739635 5.268531 24.020199 14.645806 14.642448 C 24.01879 5.267678 36.740375 -0.0014746 49.999357 -0.000832913 Z M 49.999357 -0.000832913 " stroke="#000000" stroke-width="6" stroke-opacity="1" stroke-miterlimit="4"/></g></g></g></g><g clip-path="url(#148c68b985)"><path stroke-linecap="butt" transform="matrix(0.747627, 0, 0, 0.747627, 0, 0.533815)" fill="none" stroke-linejoin="miter" d="M 0 0.0017945 L 315.31031 0.0017945 L 315.31031 649.9701 L 0 649.9701 Z M 0 0.0017945 " stroke="#000000" stroke-width="20" stroke-opacity="1" stroke-miterlimit="4"/></g><g clip-path="url(#3a145fc82e)"><path stroke-linecap="butt" transform="matrix(0.747627, 0, 0, 0.747627, 12.188874, 12.711743)" fill="none" stroke-linejoin="miter" d="M -0.0018373 -0.0010777 L 282.720992 -0.0010777 L 282.720992 617.390218 L -0.0018373 617.390218 Z M -0.0018373 -0.0010777 " stroke="#000000" stroke-width="6" stroke-opacity="1" stroke-miterlimit="4"/></g><g clip-path="url(#d34d24b689)"><path fill="#ffffff" d="M 7.476562 12.984375 L 12.242188 12.984375 L 12.242188 462.925781 L 7.476562 462.925781 Z M 7.476562 12.984375 " fill-opacity="1" fill-rule="nonzero"/></g><g clip-path="url(#afddcee794)"><path fill="#ffffff" d="M 223.558594 12.710938 L 228.324219 12.710938 L 228.324219 462.652344 L 223.558594 462.652344 Z M 223.558594 12.710938 " fill-opacity="1" fill-rule="nonzero"/></g></svg>